<?xml version="1.0" encoding="UTF-8"?>
<svg width="140px" height="28px" viewBox="0 0 140 28" version="1.1" xmlns="http://www.w3.org/2000/svg" xmlns:xlink="http://www.w3.org/1999/xlink">
    <!-- Generator: Sketch 49.3 (51167) - http://www.bohemiancoding.com/sketch -->
    <title>img-logo</title>
    <desc>Created with Sketch.</desc>
    <defs></defs>
    <g id="img-logo" stroke="none" stroke-width="1" fill="none" fill-rule="evenodd">
        <g id="img-logo-2018">
            <path d="M21.8944805,0 C23.8999178,0 25.5891316,0.123228922 26.9621725,0.369690462 C28.3352134,0.616152002 29.4661036,0.988704557 30.3548769,1.4873593 C31.2436503,1.98601405 31.9273119,2.61362181 32.4058821,3.37020142 C32.8844524,4.12678103 33.234829,5.01517559 33.4570223,6.03541173 C33.6792156,7.05564787 33.8102508,8.207695 33.8501316,9.49158768 C33.8900125,10.7754804 33.9099526,12.1969116 33.9099526,13.7559242 C33.9099526,15.3149367 33.8900125,16.736368 33.8501316,18.0202607 C33.8102508,19.3041533 33.6792156,20.4562005 33.4570223,21.4764366 C33.234829,22.4966728 32.8844524,23.3850673 32.4058821,24.1416469 C31.9273119,24.8982265 31.2436503,25.5258343 30.3548769,26.024489 C29.4661036,26.5231438 28.3352134,26.8956963 26.9621725,27.1421579 C25.5891316,27.3886194 23.8999178,27.5118483 21.8944805,27.5118483 L12.0154721,27.5118483 C10.0100348,27.5118483 8.32082101,27.3886194 6.94778011,27.1421579 C5.57473921,26.8956963 4.44384904,26.5231438 3.55507568,26.024489 C2.66630231,25.5258343 1.97979216,24.8982265 1.49552462,24.1416469 C1.01125709,23.3850673 0.658031945,22.4966728 0.435838605,21.4764366 C0.213645264,20.4562005 0.0854587208,19.3041533 0.0512751299,18.0202607 C0.0170915391,16.736368 0,15.3149367 0,13.7559242 C0,12.1969116 0.0170915391,10.7754804 0.0512751299,9.49158768 C0.0854587208,8.207695 0.213645264,7.05564787 0.435838605,6.03541173 C0.658031945,5.01517559 1.01125709,4.12678103 1.49552462,3.37020142 C1.97979216,2.61362181 2.66630231,1.98601405 3.55507568,1.4873593 C4.44384904,0.988704557 5.57473921,0.616152002 6.94778011,0.369690462 C8.32082101,0.123228922 10.0100348,0 12.0154721,0 L21.8944805,0 Z M21.8957013,24.7606635 C23.3428067,24.7606635 24.5648517,24.7176767 25.5618731,24.6317017 C26.5588945,24.5457268 27.382137,24.3709136 28.0316252,24.1072571 C28.6811134,23.8436006 29.1824652,23.4653164 29.5356957,22.9723934 C29.8889261,22.4794703 30.1452992,21.8260704 30.3048226,21.0121742 C30.4643461,20.1982779 30.5583495,19.1981176 30.5868359,18.0116632 C30.6153222,16.8252088 30.6295651,15.4066433 30.6295651,13.7559242 C30.6295651,12.105205 30.6153222,10.6866395 30.5868359,9.50018513 C30.5583495,8.31373074 30.4643461,7.31357042 30.3048226,6.49967417 C30.1452992,5.68577792 29.8889261,5.03237806 29.5356957,4.53945498 C29.1824652,4.0465319 28.683962,3.66824776 28.0401711,3.40459123 C27.3963801,3.1409347 26.5759862,2.96612158 25.5789648,2.88014662 C24.5819434,2.79417167 23.3542012,2.75118483 21.8957013,2.75118483 L12.016693,2.75118483 C10.5581931,2.75118483 9.33045085,2.79417167 8.33342945,2.88014662 C7.33640805,2.96612158 6.51316559,3.1409347 5.86367736,3.40459123 C5.21418913,3.66824776 4.71283732,4.0465319 4.35960688,4.53945498 C4.00637644,5.03237806 3.75000336,5.68577792 3.59047993,6.49967417 C3.43095651,7.31357042 3.33980163,8.31373074 3.31701257,9.50018513 C3.29422351,10.6866395 3.28282915,12.105205 3.28282915,13.7559242 C3.28282915,15.4066433 3.2970721,16.8252088 3.32555843,18.0116632 C3.35404475,19.1981176 3.44804822,20.1982779 3.60757164,21.0121742 C3.76709507,21.8260704 4.02061956,22.4794703 4.36815274,22.9723934 C4.71568591,23.4653164 5.21418913,23.8436006 5.86367736,24.1072571 C6.51316559,24.3709136 7.33640805,24.5457268 8.33342945,24.6317017 C9.33045085,24.7176767 10.5581931,24.7606635 12.016693,24.7606635 L21.8957013,24.7606635 Z" id="ONiXS" fill="#0A1C53"></path>
            <polygon id="Path" fill="#0A1C53" points="41.2425038 26.8720379 38.3886256 26.8720379 38.3886256 3.83886256 43.3977764 3.83886256 64.3262166 23.992891 64.3262166 3.83886256 67.1800948 3.83886256 67.1800948 26.8720379 63.3749238 26.8720379 41.2425038 6.23815166"></polygon>
            <polygon id="Combined-Shape" fill="#DEA147" points="72.2985782 3.83886256 75.4976303 3.83886256 75.4976303 26.8720379 72.2985782 26.8720379"></polygon>
            <polygon id="Path" fill="#0A1C53" points="95.2267847 14.7256368 108.767773 26.8720379 104.688981 26.8720379 93.21738 16.5850859 82.1356635 26.8720379 78.056872 26.8720379 91.1479932 14.7256368 79.0165877 3.83886256 83.0953791 3.83886256 93.1424023 12.8661878 102.874519 3.83886256 106.95331 3.83886256"></polygon>
            <path d="M127.535554,12.702404 C129.32053,12.702404 130.851293,12.775427 132.12789,12.9214751 C133.404487,13.0675232 134.48054,13.2837835 135.356083,13.5702625 C136.231625,13.8567415 136.929224,14.2134306 137.4489,14.6403405 C137.968577,15.0672503 138.369626,15.5531339 138.652058,16.0980057 C138.934491,16.6428775 139.11807,17.2523384 139.2028,17.9264066 C139.28753,18.6004749 139.329894,19.3307045 139.329894,20.1171174 C139.329894,20.9035303 139.259287,21.6421857 139.11807,22.3331056 C138.976854,23.0240256 138.725492,23.655955 138.363978,24.228913 C138.002464,24.801871 137.511038,25.3130318 136.889686,25.7624106 C136.268333,26.2117894 135.477533,26.5937557 134.517261,26.9083208 C133.556989,27.222886 132.401855,27.4616149 131.051826,27.6245147 C129.701797,27.7874146 128.12302,27.8688632 126.315449,27.8688632 L121.977301,27.8688632 C120.350487,27.8688632 118.927047,27.8070746 117.706936,27.6834954 C116.486826,27.5599162 115.436191,27.3717417 114.555001,27.1189661 C113.67381,26.8661905 112.945144,26.5460129 112.368981,26.1584237 C111.792817,25.7708344 111.332459,25.3158452 110.98789,24.7934423 C110.643322,24.2710395 110.403258,23.6756215 110.26769,23.0071705 C110.132122,22.3387195 110.064339,21.6000641 110.064339,20.7911823 L113.31795,20.7911823 C113.31795,21.8022846 113.464813,22.5943029 113.758544,23.1672609 C114.052274,23.7402189 114.538051,24.1699309 115.21589,24.4564099 C115.893729,24.7428889 116.78338,24.9226377 117.884868,24.9956618 C118.986357,25.0686859 120.350487,25.1051973 121.977301,25.1051973 L126.315449,25.1051973 C128.213399,25.1051973 129.789351,25.0153229 131.043353,24.8355714 C132.297355,24.6558199 133.297153,24.3693452 134.042776,23.9761387 C134.788399,23.5829322 135.313716,23.0689629 135.618744,22.4342154 C135.923771,21.7994678 136.076283,21.0271095 136.076283,20.1171174 C136.076283,19.2071253 135.971784,18.4488099 135.762784,17.8421485 C135.553784,17.2354871 135.141438,16.7524121 134.525734,16.3929091 C133.91003,16.033406 133.042974,15.7778257 131.924539,15.6261603 C130.806105,15.474495 129.343124,15.3986634 127.535554,15.3986634 L123.061838,15.3986634 C121.07351,15.3986634 119.370465,15.3256405 117.952652,15.1795923 C116.534838,15.0335442 115.345814,14.8229011 114.385542,14.5476565 C113.42527,14.272412 112.657064,13.9297658 112.0809,13.5197076 C111.504737,13.1096495 111.066973,12.6406174 110.767594,12.1125973 C110.468215,11.5845771 110.273339,10.9975849 110.18296,10.3516028 C110.092582,9.70562078 110.047393,9.00628548 110.047393,8.25357596 C110.047393,7.46716303 110.118001,6.73693341 110.259217,6.06286519 C110.400433,5.38879696 110.663092,4.77933608 111.047201,4.23446427 C111.43131,3.68959245 111.956627,3.20370889 112.623169,2.77679902 C113.289711,2.34988914 114.14547,1.99320006 115.190471,1.70672106 C116.235473,1.42024206 117.492281,1.20398175 118.960932,1.05793364 C120.429584,0.911885522 122.158047,0.838862559 124.146375,0.838862559 L127.399986,0.838862559 C129.0268,0.838862559 130.450241,0.897842644 131.670351,1.01580458 C132.890461,1.13376652 133.941096,1.3191325 134.822287,1.57190809 C135.703478,1.82468367 136.434968,2.13924413 137.01678,2.51559889 C137.598592,2.89195365 138.061775,3.34132572 138.406343,3.8637286 C138.750911,4.38613147 138.990976,4.9787409 139.126543,5.64157465 C139.262111,6.30440841 139.329894,7.04025518 139.329894,7.84913705 L136.076283,7.84913705 C136.076283,6.83803471 135.92942,6.04601643 135.63569,5.47305844 C135.341959,4.90010045 134.856182,4.4703884 134.178343,4.1839094 C133.500504,3.89743041 132.608029,3.71768158 131.500892,3.64465752 C130.393755,3.57163346 129.0268,3.53512198 127.399986,3.53512198 L124.146375,3.53512198 C121.97729,3.53512198 120.192341,3.61095352 118.791473,3.76261887 C117.390606,3.91428422 116.283486,4.16986459 115.470079,4.52936764 C114.656672,4.88887069 114.091814,5.37194568 113.77549,5.97860708 C113.459165,6.58526848 113.301005,7.34358386 113.301005,8.25357596 C113.301005,8.81529949 113.340545,9.31522592 113.419626,9.75337027 C113.498707,10.1915146 113.659691,10.5762895 113.902584,10.9077063 C114.145476,11.2391232 114.487215,11.5171722 114.92781,11.7418616 C115.368406,11.966551 115.950209,12.151917 116.673237,12.2979651 C117.396265,12.4440132 118.280267,12.5479305 119.325269,12.6097201 C120.370271,12.6715097 121.615781,12.702404 123.061838,12.702404 L127.535554,12.702404 Z" id="Path" fill="#DEA147"></path>
            <path d="M7.11512619,5.11848341 C7.11512619,5.11848341 2.26444621,12.4654786 10.9061061,14.0758294 C19.5477659,15.6861802 24.3480829,15.9858124 24.3480829,18.7028955 C24.3480829,20.5142842 24.1824806,21.9577108 23.8512759,23.0331754 C26.2916575,21.6581086 27.5118483,19.817077 27.5118483,17.5100808 C27.5118483,14.0495863 24.1971317,13.1169207 19.8781246,12.2295413 C15.5591176,11.3421618 7.11512619,11.5227244 7.11512619,5.11848341 Z" id="Path-2-Copy" fill-opacity="0.5" fill="#0A1C53"></path>
        </g>
    </g>
</svg>